STARTFONT 2.1
FONT -xos4-Terminus-Bold-R-Normal--14-140-72-72-C-80-Microsoft-CP1251
SIZE 14 72 72
FONTBOUNDINGBOX 8 14 0 -2
STARTPROPERTIES 23
FAMILY_NAME "Terminus"
FOUNDRY "xos4"
SETWIDTH_NAME "Normal"
ADD_STYLE_NAME ""
COPYRIGHT "Copyright (C) 2009 Dimitar Toshkov Zhekov"
WEIGHT_NAME "Bold"
SLANT "R"
PIXEL_SIZE 14
POINT_SIZE 140
RESOLUTION_X 72
RESOLUTION_Y 72
SPACING "C"
AVERAGE_WIDTH 80
CHARSET_REGISTRY "Microsoft"
CHARSET_ENCODING "CP1251"
MIN_SPACE 8
WEIGHT 10
X_HEIGHT 12
QUAD_WIDTH 8
DEFAULT_CHAR 63
FONT_DESCENT 2
FONT_ASCENT 12
_GBDFED_INFO "Edited with gbdfed 1.5."
ENDPROPERTIES
CHARS 201
STARTCHAR uni0000
ENCODING 0
SWIDTH 571 0
DWIDTH 8 0
BBX 8 14 0 -2
BITMAP
00
00
EE
C6
00
C6
C6
C6
C6
00
C6
EE
00
00
ENDCHAR
STARTCHAR uni0001
ENCODING 1
SWIDTH 571 0
DWIDTH 8 0
BBX 8 14 0 -2
BITMAP
00
00
00
00
18
3C
7E
FF
7E
3C
18
00
00
00
ENDCHAR
STARTCHAR uni0002
ENCODING 2
SWIDTH 571 0
DWIDTH 8 0
BBX 8 14 0 -2
BITMAP
AA
55
AA
55
AA
55
AA
55
AA
55
AA
55
AA
55
ENDCHAR
STARTCHAR uni000B
ENCODING 11
SWIDTH 571 0
DWIDTH 8 0
BBX 8 14 0 -2
BITMAP
18
18
18
18
18
18
F8
F8
00
00
00
00
00
00
ENDCHAR
STARTCHAR uni000C
ENCODING 12
SWIDTH 571 0
DWIDTH 8 0
BBX 8 14 0 -2
BITMAP
00
00
00
00
00
00
F8
F8
18
18
18
18
18
18
ENDCHAR
STARTCHAR uni000D
ENCODING 13
SWIDTH 571 0
DWIDTH 8 0
BBX 8 14 0 -2
BITMAP
00
00
00
00
00
00
1F
1F
18
18
18
18
18
18
ENDCHAR
STARTCHAR uni000E
ENCODING 14
SWIDTH 571 0
DWIDTH 8 0
BBX 8 14 0 -2
BITMAP
18
18
18
18
18
18
1F
1F
00
00
00
00
00
00
ENDCHAR
STARTCHAR uni000F
ENCODING 15
SWIDTH 571 0
DWIDTH 8 0
BBX 8 14 0 -2
BITMAP
18
18
18
18
18
18
FF
FF
18
18
18
18
18
18
ENDCHAR
STARTCHAR uni0012
ENCODING 18
SWIDTH 571 0
DWIDTH 8 0
BBX 8 14 0 -2
BITMAP
00
00
00
00
00
00
FF
FF
00
00
00
00
00
00
ENDCHAR
STARTCHAR uni0015
ENCODING 21
SWIDTH 571 0
DWIDTH 8 0
BBX 8 14 0 -2
BITMAP
18
18
18
18
18
18
1F
1F
18
18
18
18
18
18
ENDCHAR
STARTCHAR uni0016
ENCODING 22
SWIDTH 571 0
DWIDTH 8 0
BBX 8 14 0 -2
BITMAP
18
18
18
18
18
18
F8
F8
18
18
18
18
18
18
ENDCHAR
STARTCHAR uni0017
ENCODING 23
SWIDTH 571 0
DWIDTH 8 0
BBX 8 14 0 -2
BITMAP
18
18
18
18
18
18
FF
FF
00
00
00
00
00
00
ENDCHAR
STARTCHAR uni0018
ENCODING 24
SWIDTH 571 0
DWIDTH 8 0
BBX 8 14 0 -2
BITMAP
00
00
00
00
00
00
FF
FF
18
18
18
18
18
18
ENDCHAR
STARTCHAR uni0019
ENCODING 25
SWIDTH 571 0
DWIDTH 8 0
BBX 8 14 0 -2
BITMAP
18
18
18
18
18
18
18
18
18
18
18
18
18
18
ENDCHAR
STARTCHAR uni001A
ENCODING 26
SWIDTH 571 0
DWIDTH 8 0
BBX 8 14 0 -2
BITMAP
00
00
00
0C
18
30
60
30
18
0C
00
7E
00
00
ENDCHAR
STARTCHAR uni001B
ENCODING 27
SWIDTH 571 0
DWIDTH 8 0
BBX 8 14 0 -2
BITMAP
00
00
00
30
18
0C
06
0C
18
30
00
7E
00
00
ENDCHAR
STARTCHAR uni001D
ENCODING 29
SWIDTH 571 0
DWIDTH 8 0
BBX 8 14 0 -2
BITMAP
00
00
00
00
06
FE
18
30
FE
C0
00
00
00
00
ENDCHAR
STARTCHAR uni001F
ENCODING 31
SWIDTH 571 0
DWIDTH 8 0
BBX 8 14 0 -2
BITMAP
00
00
00
00
00
00
18
18
00
00
00
00
00
00
ENDCHAR
STARTCHAR space
ENCODING 32
SWIDTH 571 0
DWIDTH 8 0
BBX 8 14 0 -2
BITMAP
00
00
00
00
00
00
00
00
00
00
00
00
00
00
ENDCHAR
STARTCHAR exclam
ENCODING 33
SWIDTH 571 0
DWIDTH 8 0
BBX 8 14 0 -2
BITMAP
00
00
18
18
18
18
18
18
18
00
18
18
00
00
ENDCHAR
STARTCHAR quotedbl
ENCODING 34
SWIDTH 571 0
DWIDTH 8 0
BBX 8 14 0 -2
BITMAP
00
66
66
66
00
00
00
00
00
00
00
00
00
00
ENDCHAR
STARTCHAR numbersign
ENCODING 35
SWIDTH 571 0
DWIDTH 8 0
BBX 8 14 0 -2
BITMAP
00
00
6C
6C
6C
FE
6C
6C
FE
6C
6C
6C
00
00
ENDCHAR
STARTCHAR dollar
ENCODING 36
SWIDTH 571 0
DWIDTH 8 0
BBX 8 14 0 -2
BITMAP
00
10
10
7C
D6
D0
D0
7C
16
16
D6
7C
10
10
ENDCHAR
STARTCHAR percent
ENCODING 37
SWIDTH 571 0
DWIDTH 8 0
BBX 8 14 0 -2
BITMAP
00
00
66
D6
6C
0C
18
18
30
36
6B
66
00
00
ENDCHAR
STARTCHAR ampersand
ENCODING 38
SWIDTH 571 0
DWIDTH 8 0
BBX 8 14 0 -2
BITMAP
00
00
38
6C
6C
38
76
DC
CC
CC
DC
76
00
00
ENDCHAR
STARTCHAR quotesingle
ENCODING 39
SWIDTH 571 0
DWIDTH 8 0
BBX 8 14 0 -2
BITMAP
00
18
18
18
00
00
00
00
00
00
00
00
00
00
ENDCHAR
STARTCHAR parenleft
ENCODING 40
SWIDTH 571 0
DWIDTH 8 0
BBX 8 14 0 -2
BITMAP
00
00
0C
18
30
30
30
30
30
30
18
0C
00
00
ENDCHAR
STARTCHAR parenright
ENCODING 41
SWIDTH 571 0
DWIDTH 8 0
BBX 8 14 0 -2
BITMAP
00
00
30
18
0C
0C
0C
0C
0C
0C
18
30
00
00
ENDCHAR
STARTCHAR asterisk
ENCODING 42
SWIDTH 571 0
DWIDTH 8 0
BBX 8 14 0 -2
BITMAP
00
00
00
00
00
6C
38
FE
38
6C
00
00
00
00
ENDCHAR
STARTCHAR plus
ENCODING 43
SWIDTH 571 0
DWIDTH 8 0
BBX 8 14 0 -2
BITMAP
00
00
00
00
00
18
18
7E
18
18
00
00
00
00
ENDCHAR
STARTCHAR comma
ENCODING 44
SWIDTH 571 0
DWIDTH 8 0
BBX 8 14 0 -2
BITMAP
00
00
00
00
00
00
00
00
00
00
18
18
30
00
ENDCHAR
STARTCHAR hyphen
ENCODING 45
SWIDTH 571 0
DWIDTH 8 0
BBX 8 14 0 -2
BITMAP
00
00
00
00
00
00
00
FE
00
00
00
00
00
00
ENDCHAR
STARTCHAR period
ENCODING 46
SWIDTH 571 0
DWIDTH 8 0
BBX 8 14 0 -2
BITMAP
00
00
00
00
00
00
00
00
00
00
18
18
00
00
ENDCHAR
STARTCHAR slash
ENCODING 47
SWIDTH 571 0
DWIDTH 8 0
BBX 8 14 0 -2
BITMAP
00
00
06
06
0C
0C
18
18
30
30
60
60
00
00
ENDCHAR
STARTCHAR zero
ENCODING 48
SWIDTH 571 0
DWIDTH 8 0
BBX 8 14 0 -2
BITMAP
00
00
7C
C6
C6
CE
DE
F6
E6
C6
C6
7C
00
00
ENDCHAR
STARTCHAR one
ENCODING 49
SWIDTH 571 0
DWIDTH 8 0
BBX 8 14 0 -2
BITMAP
00
00
18
38
78
18
18
18
18
18
18
7E
00
00
ENDCHAR
STARTCHAR two
ENCODING 50
SWIDTH 571 0
DWIDTH 8 0
BBX 8 14 0 -2
BITMAP
00
00
7C
C6
C6
06
0C
18
30
60
C0
FE
00
00
ENDCHAR
STARTCHAR three
ENCODING 51
SWIDTH 571 0
DWIDTH 8 0
BBX 8 14 0 -2
BITMAP
00
00
7C
C6
C6
06
3C
06
06
C6
C6
7C
00
00
ENDCHAR
STARTCHAR four
ENCODING 52
SWIDTH 571 0
DWIDTH 8 0
BBX 8 14 0 -2
BITMAP
00
00
06
0E
1E
36
66
C6
FE
06
06
06
00
00
ENDCHAR
STARTCHAR five
ENCODING 53
SWIDTH 571 0
DWIDTH 8 0
BBX 8 14 0 -2
BITMAP
00
00
FE
C0
C0
C0
FC
06
06
06
C6
7C
00
00
ENDCHAR
STARTCHAR six
ENCODING 54
SWIDTH 571 0
DWIDTH 8 0
BBX 8 14 0 -2
BITMAP
00
00
3C
60
C0
C0
FC
C6
C6
C6
C6
7C
00
00
ENDCHAR
STARTCHAR seven
ENCODING 55
SWIDTH 571 0
DWIDTH 8 0
BBX 8 14 0 -2
BITMAP
00
00
FE
06
06
0C
0C
18
18
30
30
30
00
00
ENDCHAR
STARTCHAR eight
ENCODING 56
SWIDTH 571 0
DWIDTH 8 0
BBX 8 14 0 -2
BITMAP
00
00
7C
C6
C6
C6
7C
C6
C6
C6
C6
7C
00
00
ENDCHAR
STARTCHAR nine
ENCODING 57
SWIDTH 571 0
DWIDTH 8 0
BBX 8 14 0 -2
BITMAP
00
00
7C
C6
C6
C6
C6
7E
06
06
0C
78
00
00
ENDCHAR
STARTCHAR colon
ENCODING 58
SWIDTH 571 0
DWIDTH 8 0
BBX 8 14 0 -2
BITMAP
00
00
00
00
00
18
18
00
00
00
18
18
00
00
ENDCHAR
STARTCHAR semicolon
ENCODING 59
SWIDTH 571 0
DWIDTH 8 0
BBX 8 14 0 -2
BITMAP
00
00
00
00
00
18
18
00
00
00
18
18
30
00
ENDCHAR
STARTCHAR less
ENCODING 60
SWIDTH 571 0
DWIDTH 8 0
BBX 8 14 0 -2
BITMAP
00
00
00
06
0C
18
30
60
30
18
0C
06
00
00
ENDCHAR
STARTCHAR equal
ENCODING 61
SWIDTH 571 0
DWIDTH 8 0
BBX 8 14 0 -2
BITMAP
00
00
00
00
00
FE
00
00
FE
00
00
00
00
00
ENDCHAR
STARTCHAR greater
ENCODING 62
SWIDTH 571 0
DWIDTH 8 0
BBX 8 14 0 -2
BITMAP
00
00
00
60
30
18
0C
06
0C
18
30
60
00
00
ENDCHAR
STARTCHAR question
ENCODING 63
SWIDTH 571 0
DWIDTH 8 0
BBX 8 14 0 -2
BITMAP
00
00
7C
C6
C6
C6
0C
18
18
00
18
18
00
00
ENDCHAR
STARTCHAR at
ENCODING 64
SWIDTH 571 0
DWIDTH 8 0
BBX 8 14 0 -2
BITMAP
00
00
7C
C6
CE
D6
D6
D6
D6
CE
C0
7E
00
00
ENDCHAR
STARTCHAR A
ENCODING 65
SWIDTH 571 0
DWIDTH 8 0
BBX 8 14 0 -2
BITMAP
00
00
7C
C6
C6
C6
C6
FE
C6
C6
C6
C6
00
00
ENDCHAR
STARTCHAR B
ENCODING 66
SWIDTH 571 0
DWIDTH 8 0
BBX 8 14 0 -2
BITMAP
00
00
FC
C6
C6
C6
FC
C6
C6
C6
C6
FC
00
00
ENDCHAR
STARTCHAR C
ENCODING 67
SWIDTH 571 0
DWIDTH 8 0
BBX 8 14 0 -2
BITMAP
00
00
7C
C6
C6
C0
C0
C0
C0
C6
C6
7C
00
00
ENDCHAR
STARTCHAR D
ENCODING 68
SWIDTH 571 0
DWIDTH 8 0
BBX 8 14 0 -2
BITMAP
00
00
F8
CC
C6
C6
C6
C6
C6
C6
CC
F8
00
00
ENDCHAR
STARTCHAR E
ENCODING 69
SWIDTH 571 0
DWIDTH 8 0
BBX 8 14 0 -2
BITMAP
00
00
FE
C0
C0
C0
F8
C0
C0
C0
C0
FE
00
00
ENDCHAR
STARTCHAR F
ENCODING 70
SWIDTH 571 0
DWIDTH 8 0
BBX 8 14 0 -2
BITMAP
00
00
FE
C0
C0
C0
F8
C0
C0
C0
C0
C0
00
00
ENDCHAR
STARTCHAR G
ENCODING 71
SWIDTH 571 0
DWIDTH 8 0
BBX 8 14 0 -2
BITMAP
00
00
7C
C6
C6
C0
C0
DE
C6
C6
C6
7C
00
00
ENDCHAR
STARTCHAR H
ENCODING 72
SWIDTH 571 0
DWIDTH 8 0
BBX 8 14 0 -2
BITMAP
00
00
C6
C6
C6
C6
FE
C6
C6
C6
C6
C6
00
00
ENDCHAR
STARTCHAR I
ENCODING 73
SWIDTH 571 0
DWIDTH 8 0
BBX 8 14 0 -2
BITMAP
00
00
3C
18
18
18
18
18
18
18
18
3C
00
00
ENDCHAR
STARTCHAR J
ENCODING 74
SWIDTH 571 0
DWIDTH 8 0
BBX 8 14 0 -2
BITMAP
00
00
1E
0C
0C
0C
0C
0C
0C
CC
CC
78
00
00
ENDCHAR
STARTCHAR K
ENCODING 75
SWIDTH 571 0
DWIDTH 8 0
BBX 8 14 0 -2
BITMAP
00
00
C6
C6
CC
D8
F0
F0
D8
CC
C6
C6
00
00
ENDCHAR
STARTCHAR L
ENCODING 76
SWIDTH 571 0
DWIDTH 8 0
BBX 8 14 0 -2
BITMAP
00
00
C0
C0
C0
C0
C0
C0
C0
C0
C0
FE
00
00
ENDCHAR
STARTCHAR M
ENCODING 77
SWIDTH 571 0
DWIDTH 8 0
BBX 8 14 0 -2
BITMAP
00
00
82
C6
EE
FE
D6
C6
C6
C6
C6
C6
00
00
ENDCHAR
STARTCHAR N
ENCODING 78
SWIDTH 571 0
DWIDTH 8 0
BBX 8 14 0 -2
BITMAP
00
00
C6
C6
C6
E6
F6
DE
CE
C6
C6
C6
00
00
ENDCHAR
STARTCHAR O
ENCODING 79
SWIDTH 571 0
DWIDTH 8 0
BBX 8 14 0 -2
BITMAP
00
00
7C
C6
C6
C6
C6
C6
C6
C6
C6
7C
00
00
ENDCHAR
STARTCHAR P
ENCODING 80
SWIDTH 571 0
DWIDTH 8 0
BBX 8 14 0 -2
BITMAP
00
00
FC
C6
C6
C6
C6
FC
C0
C0
C0
C0
00
00
ENDCHAR
STARTCHAR Q
ENCODING 81
SWIDTH 571 0
DWIDTH 8 0
BBX 8 14 0 -2
BITMAP
00
00
7C
C6
C6
C6
C6
C6
C6
C6
DE
7C
06
00
ENDCHAR
STARTCHAR R
ENCODING 82
SWIDTH 571 0
DWIDTH 8 0
BBX 8 14 0 -2
BITMAP
00
00
FC
C6
C6
C6
C6
FC
F0
D8
CC
C6
00
00
ENDCHAR
STARTCHAR S
ENCODING 83
SWIDTH 571 0
DWIDTH 8 0
BBX 8 14 0 -2
BITMAP
00
00
7C
C6
C0
C0
7C
06
06
C6
C6
7C
00
00
ENDCHAR
STARTCHAR T
ENCODING 84
SWIDTH 571 0
DWIDTH 8 0
BBX 8 14 0 -2
BITMAP
00
00
FF
18
18
18
18
18
18
18
18
18
00
00
ENDCHAR
STARTCHAR U
ENCODING 85
SWIDTH 571 0
DWIDTH 8 0
BBX 8 14 0 -2
BITMAP
00
00
C6
C6
C6
C6
C6
C6
C6
C6
C6
7C
00
00
ENDCHAR
STARTCHAR V
ENCODING 86
SWIDTH 571 0
DWIDTH 8 0
BBX 8 14 0 -2
BITMAP
00
00
C6
C6
C6
C6
C6
6C
6C
6C
38
38
00
00
ENDCHAR
STARTCHAR W
ENCODING 87
SWIDTH 571 0
DWIDTH 8 0
BBX 8 14 0 -2
BITMAP
00
00
C6
C6
C6
C6
C6
D6
FE
EE
C6
82
00
00
ENDCHAR
STARTCHAR X
ENCODING 88
SWIDTH 571 0
DWIDTH 8 0
BBX 8 14 0 -2
BITMAP
00
00
C6
C6
6C
6C
38
38
6C
6C
C6
C6
00
00
ENDCHAR
STARTCHAR Y
ENCODING 89
SWIDTH 571 0
DWIDTH 8 0
BBX 8 14 0 -2
BITMAP
00
00
C3
C3
66
66
3C
18
18
18
18
18
00
00
ENDCHAR
STARTCHAR Z
ENCODING 90
SWIDTH 571 0
DWIDTH 8 0
BBX 8 14 0 -2
BITMAP
00
00
FE
06
06
0C
18
30
60
C0
C0
FE
00
00
ENDCHAR
STARTCHAR bracketleft
ENCODING 91
SWIDTH 571 0
DWIDTH 8 0
BBX 8 14 0 -2
BITMAP
00
00
3C
30
30
30
30
30
30
30
30
3C
00
00
ENDCHAR
STARTCHAR backslash
ENCODING 92
SWIDTH 571 0
DWIDTH 8 0
BBX 8 14 0 -2
BITMAP
00
00
60
60
30
30
18
18
0C
0C
06
06
00
00
ENDCHAR
STARTCHAR bracketright
ENCODING 93
SWIDTH 571 0
DWIDTH 8 0
BBX 8 14 0 -2
BITMAP
00
00
3C
0C
0C
0C
0C
0C
0C
0C
0C
3C
00
00
ENDCHAR
STARTCHAR asciicircum
ENCODING 94
SWIDTH 571 0
DWIDTH 8 0
BBX 8 14 0 -2
BITMAP
00
18
3C
66
00
00
00
00
00
00
00
00
00
00
ENDCHAR
STARTCHAR underscore
ENCODING 95
SWIDTH 571 0
DWIDTH 8 0
BBX 8 14 0 -2
BITMAP
00
00
00
00
00
00
00
00
00
00
00
00
FE
00
ENDCHAR
STARTCHAR grave
ENCODING 96
SWIDTH 571 0
DWIDTH 8 0
BBX 8 14 0 -2
BITMAP
30
18
00
00
00
00
00
00
00
00
00
00
00
00
ENDCHAR
STARTCHAR a
ENCODING 97
SWIDTH 571 0
DWIDTH 8 0
BBX 8 14 0 -2
BITMAP
00
00
00
00
00
7C
06
7E
C6
C6
C6
7E
00
00
ENDCHAR
STARTCHAR b
ENCODING 98
SWIDTH 571 0
DWIDTH 8 0
BBX 8 14 0 -2
BITMAP
00
00
C0
C0
C0
FC
C6
C6
C6
C6
C6
FC
00
00
ENDCHAR
STARTCHAR c
ENCODING 99
SWIDTH 571 0
DWIDTH 8 0
BBX 8 14 0 -2
BITMAP
00
00
00
00
00
7C
C6
C0
C0
C0
C6
7C
00
00
ENDCHAR
STARTCHAR d
ENCODING 100
SWIDTH 571 0
DWIDTH 8 0
BBX 8 14 0 -2
BITMAP
00
00
06
06
06
7E
C6
C6
C6
C6
C6
7E
00
00
ENDCHAR
STARTCHAR e
ENCODING 101
SWIDTH 571 0
DWIDTH 8 0
BBX 8 14 0 -2
BITMAP
00
00
00
00
00
7C
C6
C6
FE
C0
C0
7C
00
00
ENDCHAR
STARTCHAR f
ENCODING 102
SWIDTH 571 0
DWIDTH 8 0
BBX 8 14 0 -2
BITMAP
00
00
1E
30
30
FC
30
30
30
30
30
30
00
00
ENDCHAR
STARTCHAR g
ENCODING 103
SWIDTH 571 0
DWIDTH 8 0
BBX 8 14 0 -2
BITMAP
00
00
00
00
00
7E
C6
C6
C6
C6
C6
7E
06
7C
ENDCHAR
STARTCHAR h
ENCODING 104
SWIDTH 571 0
DWIDTH 8 0
BBX 8 14 0 -2
BITMAP
00
00
C0
C0
C0
FC
C6
C6
C6
C6
C6
C6
00
00
ENDCHAR
STARTCHAR i
ENCODING 105
SWIDTH 571 0
DWIDTH 8 0
BBX 8 14 0 -2
BITMAP
00
00
18
18
00
38
18
18
18
18
18
3C
00
00
ENDCHAR
STARTCHAR j
ENCODING 106
SWIDTH 571 0
DWIDTH 8 0
BBX 8 14 0 -2
BITMAP
00
00
06
06
00
0E
06
06
06
06
06
66
66
3C
ENDCHAR
STARTCHAR k
ENCODING 107
SWIDTH 571 0
DWIDTH 8 0
BBX 8 14 0 -2
BITMAP
00
00
C0
C0
C0
C6
CC
D8
F0
D8
CC
C6
00
00
ENDCHAR
STARTCHAR l
ENCODING 108
SWIDTH 571 0
DWIDTH 8 0
BBX 8 14 0 -2
BITMAP
00
00
38
18
18
18
18
18
18
18
18
3C
00
00
ENDCHAR
STARTCHAR m
ENCODING 109
SWIDTH 571 0
DWIDTH 8 0
BBX 8 14 0 -2
BITMAP
00
00
00
00
00
FC
D6
D6
D6
D6
D6
D6
00
00
ENDCHAR
STARTCHAR n
ENCODING 110
SWIDTH 571 0
DWIDTH 8 0
BBX 8 14 0 -2
BITMAP
00
00
00
00
00
FC
C6
C6
C6
C6
C6
C6
00
00
ENDCHAR
STARTCHAR o
ENCODING 111
SWIDTH 571 0
DWIDTH 8 0
BBX 8 14 0 -2
BITMAP
00
00
00
00
00
7C
C6
C6
C6
C6
C6
7C
00
00
ENDCHAR
STARTCHAR p
ENCODING 112
SWIDTH 571 0
DWIDTH 8 0
BBX 8 14 0 -2
BITMAP
00
00
00
00
00
FC
C6
C6
C6
C6
C6
FC
C0
C0
ENDCHAR
STARTCHAR q
ENCODING 113
SWIDTH 571 0
DWIDTH 8 0
BBX 8 14 0 -2
BITMAP
00
00
00
00
00
7E
C6
C6
C6
C6
C6
7E
06
06
ENDCHAR
STARTCHAR r
ENCODING 114
SWIDTH 571 0
DWIDTH 8 0
BBX 8 14 0 -2
BITMAP
00
00
00
00
00
DE
F0
E0
C0
C0
C0
C0
00
00
ENDCHAR
STARTCHAR s
ENCODING 115
SWIDTH 571 0
DWIDTH 8 0
BBX 8 14 0 -2
BITMAP
00
00
00
00
00
7E
C0
C0
7C
06
06
FC
00
00
ENDCHAR
STARTCHAR t
ENCODING 116
SWIDTH 571 0
DWIDTH 8 0
BBX 8 14 0 -2
BITMAP
00
00
30
30
30
FC
30
30
30
30
30
1E
00
00
ENDCHAR
STARTCHAR u
ENCODING 117
SWIDTH 571 0
DWIDTH 8 0
BBX 8 14 0 -2
BITMAP
00
00
00
00
00
C6
C6
C6
C6
C6
C6
7E
00
00
ENDCHAR
STARTCHAR v
ENCODING 118
SWIDTH 571 0
DWIDTH 8 0
BBX 8 14 0 -2
BITMAP
00
00
00
00
00
C6
C6
C6
6C
6C
38
38
00
00
ENDCHAR
STARTCHAR w
ENCODING 119
SWIDTH 571 0
DWIDTH 8 0
BBX 8 14 0 -2
BITMAP
00
00
00
00
00
C6
C6
D6
D6
D6
D6
7C
00
00
ENDCHAR
STARTCHAR x
ENCODING 120
SWIDTH 571 0
DWIDTH 8 0
BBX 8 14 0 -2
BITMAP
00
00
00
00
00
C6
C6
6C
38
6C
C6
C6
00
00
ENDCHAR
STARTCHAR y
ENCODING 121
SWIDTH 571 0
DWIDTH 8 0
BBX 8 14 0 -2
BITMAP
00
00
00
00
00
C6
C6
C6
C6
C6
C6
7E
06
7C
ENDCHAR
STARTCHAR z
ENCODING 122
SWIDTH 571 0
DWIDTH 8 0
BBX 8 14 0 -2
BITMAP
00
00
00
00
00
FE
0C
18
30
60
C0
FE
00
00
ENDCHAR
STARTCHAR braceleft
ENCODING 123
SWIDTH 571 0
DWIDTH 8 0
BBX 8 14 0 -2
BITMAP
00
00
1C
30
30
30
60
30
30
30
30
1C
00
00
ENDCHAR
STARTCHAR bar
ENCODING 124
SWIDTH 571 0
DWIDTH 8 0
BBX 8 14 0 -2
BITMAP
00
00
18
18
18
18
18
18
18
18
18
18
00
00
ENDCHAR
STARTCHAR braceright
ENCODING 125
SWIDTH 571 0
DWIDTH 8 0
BBX 8 14 0 -2
BITMAP
00
00
70
18
18
18
0C
18
18
18
18
70
00
00
ENDCHAR
STARTCHAR asciitilde
ENCODING 126
SWIDTH 571 0
DWIDTH 8 0
BBX 8 14 0 -2
BITMAP
00
73
DB
CE
00
00
00
00
00
00
00
00
00
00
ENDCHAR
STARTCHAR ellipsis
ENCODING 133
SWIDTH 571 0
DWIDTH 8 0
BBX 8 14 0 -2
BITMAP
00
00
00
00
00
00
00
00
00
00
DB
DB
00
00
ENDCHAR
STARTCHAR dagger
ENCODING 134
SWIDTH 571 0
DWIDTH 8 0
BBX 8 14 0 -2
BITMAP
00
00
18
18
7E
18
18
18
18
18
18
18
00
00
ENDCHAR
STARTCHAR daggerdbl
ENCODING 135
SWIDTH 571 0
DWIDTH 8 0
BBX 8 14 0 -2
BITMAP
00
00
18
18
7E
18
18
18
18
7E
18
18
00
00
ENDCHAR
STARTCHAR Euro
ENCODING 136
SWIDTH 571 0
DWIDTH 8 0
BBX 8 14 0 -2
BITMAP
00
00
00
1E
33
60
FC
60
FC
60
33
1E
00
00
ENDCHAR
STARTCHAR perthousand
ENCODING 137
SWIDTH 571 0
DWIDTH 8 0
BBX 8 14 0 -2
BITMAP
00
00
EC
AC
F8
18
30
30
60
7F
D5
DF
00
00
ENDCHAR
STARTCHAR bullet
ENCODING 149
SWIDTH 571 0
DWIDTH 8 0
BBX 8 14 0 -2
BITMAP
00
00
00
00
00
18
3C
3C
18
00
00
00
00
00
ENDCHAR
STARTCHAR trademark
ENCODING 153
SWIDTH 571 0
DWIDTH 8 0
BBX 8 14 0 -2
BITMAP
00
00
FB
55
55
51
00
00
00
00
00
00
00
00
ENDCHAR
STARTCHAR currency
ENCODING 164
SWIDTH 571 0
DWIDTH 8 0
BBX 8 14 0 -2
BITMAP
00
00
00
00
66
3C
66
66
66
3C
66
00
00
00
ENDCHAR
STARTCHAR brokenbar
ENCODING 166
SWIDTH 571 0
DWIDTH 8 0
BBX 8 14 0 -2
BITMAP
00
00
18
18
18
18
00
00
18
18
18
18
00
00
ENDCHAR
STARTCHAR section
ENCODING 167
SWIDTH 571 0
DWIDTH 8 0
BBX 8 14 0 -2
BITMAP
00
3C
66
60
38
6C
66
66
36
1C
06
66
3C
00
ENDCHAR
STARTCHAR afii10023
ENCODING 168
SWIDTH 571 0
DWIDTH 8 0
BBX 8 14 0 -2
BITMAP
6C
6C
00
FE
C0
C0
C0
F8
C0
C0
C0
FE
00
00
ENDCHAR
STARTCHAR copyright
ENCODING 169
SWIDTH 571 0
DWIDTH 8 0
BBX 8 14 0 -2
BITMAP
00
00
00
7E
81
99
A5
A1
A5
99
81
7E
00
00
ENDCHAR
STARTCHAR guillemotleft
ENCODING 171
SWIDTH 571 0
DWIDTH 8 0
BBX 8 14 0 -2
BITMAP
00
00
00
00
00
1B
36
6C
D8
6C
36
1B
00
00
ENDCHAR
STARTCHAR logicalnot
ENCODING 172
SWIDTH 571 0
DWIDTH 8 0
BBX 8 14 0 -2
BITMAP
00
00
00
00
00
FE
06
06
06
00
00
00
00
00
ENDCHAR
STARTCHAR hyphen
ENCODING 173
SWIDTH 571 0
DWIDTH 8 0
BBX 8 14 0 -2
BITMAP
00
00
00
00
00
00
00
7C
00
00
00
00
00
00
ENDCHAR
STARTCHAR registered
ENCODING 174
SWIDTH 571 0
DWIDTH 8 0
BBX 8 14 0 -2
BITMAP
00
00
00
7E
81
B9
A5
B9
A9
A5
81
7E
00
00
ENDCHAR
STARTCHAR degree
ENCODING 176
SWIDTH 571 0
DWIDTH 8 0
BBX 8 14 0 -2
BITMAP
00
38
6C
6C
38
00
00
00
00
00
00
00
00
00
ENDCHAR
STARTCHAR plusminus
ENCODING 177
SWIDTH 571 0
DWIDTH 8 0
BBX 8 14 0 -2
BITMAP
00
00
00
00
00
18
18
7E
18
18
00
7E
00
00
ENDCHAR
STARTCHAR mu
ENCODING 181
SWIDTH 571 0
DWIDTH 8 0
BBX 8 14 0 -2
BITMAP
00
00
00
00
00
C6
C6
C6
C6
C6
CE
F6
C0
C0
ENDCHAR
STARTCHAR paragraph
ENCODING 182
SWIDTH 571 0
DWIDTH 8 0
BBX 8 14 0 -2
BITMAP
00
00
7E
D6
D6
D6
D6
76
16
16
16
16
00
00
ENDCHAR
STARTCHAR periodcentered
ENCODING 183
SWIDTH 571 0
DWIDTH 8 0
BBX 8 14 0 -2
BITMAP
00
00
00
00
00
00
18
18
00
00
00
00
00
00
ENDCHAR
STARTCHAR afii10071
ENCODING 184
SWIDTH 571 0
DWIDTH 8 0
BBX 8 14 0 -2
BITMAP
00
00
6C
6C
00
7C
C6
C6
FE
C0
C0
7C
00
00
ENDCHAR
STARTCHAR afii61352
ENCODING 185
SWIDTH 571 0
DWIDTH 8 0
BBX 8 14 0 -2
BITMAP
00
00
96
96
96
D0
F0
F0
B0
96
90
96
00
00
ENDCHAR
STARTCHAR guillemotright
ENCODING 187
SWIDTH 571 0
DWIDTH 8 0
BBX 8 14 0 -2
BITMAP
00
00
00
00
00
D8
6C
36
1B
36
6C
D8
00
00
ENDCHAR
STARTCHAR afii10017
ENCODING 192
SWIDTH 571 0
DWIDTH 8 0
BBX 8 14 0 -2
BITMAP
00
00
7C
C6
C6
C6
C6
FE
C6
C6
C6
C6
00
00
ENDCHAR
STARTCHAR afii10018
ENCODING 193
SWIDTH 571 0
DWIDTH 8 0
BBX 8 14 0 -2
BITMAP
00
00
FC
C0
C0
FC
C6
C6
C6
C6
C6
FC
00
00
ENDCHAR
STARTCHAR afii10019
ENCODING 194
SWIDTH 571 0
DWIDTH 8 0
BBX 8 14 0 -2
BITMAP
00
00
FC
C6
C6
C6
FC
C6
C6
C6
C6
FC
00
00
ENDCHAR
STARTCHAR afii10020
ENCODING 195
SWIDTH 571 0
DWIDTH 8 0
BBX 8 14 0 -2
BITMAP
00
00
FE
C0
C0
C0
C0
C0
C0
C0
C0
C0
00
00
ENDCHAR
STARTCHAR afii10021
ENCODING 196
SWIDTH 571 0
DWIDTH 8 0
BBX 8 14 0 -2
BITMAP
00
00
3E
66
66
66
66
66
66
66
66
FF
C3
00
ENDCHAR
STARTCHAR afii10022
ENCODING 197
SWIDTH 571 0
DWIDTH 8 0
BBX 8 14 0 -2
BITMAP
00
00
FE
C0
C0
C0
F8
C0
C0
C0
C0
FE
00
00
ENDCHAR
STARTCHAR afii10024
ENCODING 198
SWIDTH 571 0
DWIDTH 8 0
BBX 8 14 0 -2
BITMAP
00
00
D6
D6
D6
7C
38
7C
D6
D6
D6
D6
00
00
ENDCHAR
STARTCHAR afii10025
ENCODING 199
SWIDTH 571 0
DWIDTH 8 0
BBX 8 14 0 -2
BITMAP
00
00
7C
C6
C6
06
3C
06
06
C6
C6
7C
00
00
ENDCHAR
STARTCHAR afii10026
ENCODING 200
SWIDTH 571 0
DWIDTH 8 0
BBX 8 14 0 -2
BITMAP
00
00
C6
C6
C6
CE
DE
F6
E6
C6
C6
C6
00
00
ENDCHAR
STARTCHAR afii10027
ENCODING 201
SWIDTH 571 0
DWIDTH 8 0
BBX 8 14 0 -2
BITMAP
6C
38
C6
C6
C6
CE
DE
F6
E6
C6
C6
C6
00
00
ENDCHAR
STARTCHAR afii10028
ENCODING 202
SWIDTH 571 0
DWIDTH 8 0
BBX 8 14 0 -2
BITMAP
00
00
C6
C6
CC
D8
F0
F0
D8
CC
C6
C6
00
00
ENDCHAR
STARTCHAR afii10029
ENCODING 203
SWIDTH 571 0
DWIDTH 8 0
BBX 8 14 0 -2
BITMAP
00
00
1E
36
66
66
66
66
66
66
66
C6
00
00
ENDCHAR
STARTCHAR afii10030
ENCODING 204
SWIDTH 571 0
DWIDTH 8 0
BBX 8 14 0 -2
BITMAP
00
00
82
C6
EE
FE
D6
C6
C6
C6
C6
C6
00
00
ENDCHAR
STARTCHAR afii10031
ENCODING 205
SWIDTH 571 0
DWIDTH 8 0
BBX 8 14 0 -2
BITMAP
00
00
C6
C6
C6
C6
FE
C6
C6
C6
C6
C6
00
00
ENDCHAR
STARTCHAR afii10032
ENCODING 206
SWIDTH 571 0
DWIDTH 8 0
BBX 8 14 0 -2
BITMAP
00
00
7C
C6
C6
C6
C6
C6
C6
C6
C6
7C
00
00
ENDCHAR
STARTCHAR afii10033
ENCODING 207
SWIDTH 571 0
DWIDTH 8 0
BBX 8 14 0 -2
BITMAP
00
00
FE
C6
C6
C6
C6
C6
C6
C6
C6
C6
00
00
ENDCHAR
STARTCHAR afii10034
ENCODING 208
SWIDTH 571 0
DWIDTH 8 0
BBX 8 14 0 -2
BITMAP
00
00
FC
C6
C6
C6
C6
FC
C0
C0
C0
C0
00
00
ENDCHAR
STARTCHAR afii10035
ENCODING 209
SWIDTH 571 0
DWIDTH 8 0
BBX 8 14 0 -2
BITMAP
00
00
7C
C6
C6
C0
C0
C0
C0
C6
C6
7C
00
00
ENDCHAR
STARTCHAR afii10036
ENCODING 210
SWIDTH 571 0
DWIDTH 8 0
BBX 8 14 0 -2
BITMAP
00
00
FF
18
18
18
18
18
18
18
18
18
00
00
ENDCHAR
STARTCHAR afii10037
ENCODING 211
SWIDTH 571 0
DWIDTH 8 0
BBX 8 14 0 -2
BITMAP
00
00
C6
C6
C6
C6
C6
7E
06
06
06
7C
00
00
ENDCHAR
STARTCHAR afii10038
ENCODING 212
SWIDTH 571 0
DWIDTH 8 0
BBX 8 14 0 -2
BITMAP
00
10
7C
D6
D6
D6
D6
D6
D6
D6
D6
7C
10
00
ENDCHAR
STARTCHAR afii10039
ENCODING 213
SWIDTH 571 0
DWIDTH 8 0
BBX 8 14 0 -2
BITMAP
00
00
C6
C6
6C
6C
38
38
6C
6C
C6
C6
00
00
ENDCHAR
STARTCHAR afii10040
ENCODING 214
SWIDTH 571 0
DWIDTH 8 0
BBX 8 14 0 -2
BITMAP
00
00
C6
C6
C6
C6
C6
C6
C6
C6
C6
7F
03
03
ENDCHAR
STARTCHAR afii10041
ENCODING 215
SWIDTH 571 0
DWIDTH 8 0
BBX 8 14 0 -2
BITMAP
00
00
C6
C6
C6
C6
C6
7E
06
06
06
06
00
00
ENDCHAR
STARTCHAR afii10042
ENCODING 216
SWIDTH 571 0
DWIDTH 8 0
BBX 8 14 0 -2
BITMAP
00
00
D6
D6
D6
D6
D6
D6
D6
D6
D6
7E
00
00
ENDCHAR
STARTCHAR afii10043
ENCODING 217
SWIDTH 571 0
DWIDTH 8 0
BBX 8 14 0 -2
BITMAP
00
00
D6
D6
D6
D6
D6
D6
D6
D6
D6
7F
03
03
ENDCHAR
STARTCHAR afii10044
ENCODING 218
SWIDTH 571 0
DWIDTH 8 0
BBX 8 14 0 -2
BITMAP
00
00
E0
60
60
7C
66
66
66
66
66
7C
00
00
ENDCHAR
STARTCHAR afii10045
ENCODING 219
SWIDTH 571 0
DWIDTH 8 0
BBX 8 14 0 -2
BITMAP
00
00
C6
C6
C6
E6
D6
D6
D6
D6
D6
E6
00
00
ENDCHAR
STARTCHAR afii10046
ENCODING 220
SWIDTH 571 0
DWIDTH 8 0
BBX 8 14 0 -2
BITMAP
00
00
60
60
60
7C
66
66
66
66
66
7C
00
00
ENDCHAR
STARTCHAR afii10047
ENCODING 221
SWIDTH 571 0
DWIDTH 8 0
BBX 8 14 0 -2
BITMAP
00
00
7C
C6
06
06
3E
06
06
06
C6
7C
00
00
ENDCHAR
STARTCHAR afii10048
ENCODING 222
SWIDTH 571 0
DWIDTH 8 0
BBX 8 14 0 -2
BITMAP
00
00
CC
D6
D6
D6
D6
F6
D6
D6
D6
CC
00
00
ENDCHAR
STARTCHAR afii10049
ENCODING 223
SWIDTH 571 0
DWIDTH 8 0
BBX 8 14 0 -2
BITMAP
00
00
7E
C6
C6
C6
C6
7E
1E
36
66
C6
00
00
ENDCHAR
STARTCHAR afii10065
ENCODING 224
SWIDTH 571 0
DWIDTH 8 0
BBX 8 14 0 -2
BITMAP
00
00
00
00
00
7C
06
7E
C6
C6
C6
7E
00
00
ENDCHAR
STARTCHAR afii10066
ENCODING 225
SWIDTH 571 0
DWIDTH 8 0
BBX 8 14 0 -2
BITMAP
00
00
7C
C0
C0
FC
C6
C6
C6
C6
C6
FC
00
00
ENDCHAR
STARTCHAR afii10067
ENCODING 226
SWIDTH 571 0
DWIDTH 8 0
BBX 8 14 0 -2
BITMAP
00
00
78
CC
CC
C8
FC
C6
C6
C6
C6
FC
00
00
ENDCHAR
STARTCHAR afii10068
ENCODING 227
SWIDTH 571 0
DWIDTH 8 0
BBX 8 14 0 -2
BITMAP
00
00
00
00
00
7C
06
06
7C
C0
C0
7C
00
00
ENDCHAR
STARTCHAR afii10069
ENCODING 228
SWIDTH 571 0
DWIDTH 8 0
BBX 8 14 0 -2
BITMAP
00
00
00
00
00
7E
C6
C6
C6
C6
C6
7E
06
7C
ENDCHAR
STARTCHAR afii10070
ENCODING 229
SWIDTH 571 0
DWIDTH 8 0
BBX 8 14 0 -2
BITMAP
00
00
00
00
00
7C
C6
C6
FE
C0
C0
7C
00
00
ENDCHAR
STARTCHAR afii10072
ENCODING 230
SWIDTH 571 0
DWIDTH 8 0
BBX 8 14 0 -2
BITMAP
00
00
00
00
00
D6
D6
7C
38
7C
D6
D6
00
00
ENDCHAR
STARTCHAR afii10073
ENCODING 231
SWIDTH 571 0
DWIDTH 8 0
BBX 8 14 0 -2
BITMAP
00
00
00
00
00
7C
C6
06
3C
06
C6
7C
00
00
ENDCHAR
STARTCHAR afii10074
ENCODING 232
SWIDTH 571 0
DWIDTH 8 0
BBX 8 14 0 -2
BITMAP
00
00
00
00
00
C6
C6
C6
C6
C6
C6
7E
00
00
ENDCHAR
STARTCHAR afii10075
ENCODING 233
SWIDTH 571 0
DWIDTH 8 0
BBX 8 14 0 -2
BITMAP
00
00
6C
38
00
C6
C6
C6
C6
C6
C6
7E
00
00
ENDCHAR
STARTCHAR afii10076
ENCODING 234
SWIDTH 571 0
DWIDTH 8 0
BBX 8 14 0 -2
BITMAP
00
00
00
00
00
C6
CC
D8
F0
D8
CC
C6
00
00
ENDCHAR
STARTCHAR afii10077
ENCODING 235
SWIDTH 571 0
DWIDTH 8 0
BBX 8 14 0 -2
BITMAP
00
00
00
00
00
3E
66
66
66
66
66
C6
00
00
ENDCHAR
STARTCHAR afii10078
ENCODING 236
SWIDTH 571 0
DWIDTH 8 0
BBX 8 14 0 -2
BITMAP
00
00
00
00
00
C6
EE
FE
D6
C6
C6
C6
00
00
ENDCHAR
STARTCHAR afii10079
ENCODING 237
SWIDTH 571 0
DWIDTH 8 0
BBX 8 14 0 -2
BITMAP
00
00
00
00
00
C6
C6
C6
FE
C6
C6
C6
00
00
ENDCHAR
STARTCHAR afii10080
ENCODING 238
SWIDTH 571 0
DWIDTH 8 0
BBX 8 14 0 -2
BITMAP
00
00
00
00
00
7C
C6
C6
C6
C6
C6
7C
00
00
ENDCHAR
STARTCHAR afii10081
ENCODING 239
SWIDTH 571 0
DWIDTH 8 0
BBX 8 14 0 -2
BITMAP
00
00
00
00
00
FE
C6
C6
C6
C6
C6
C6
00
00
ENDCHAR
STARTCHAR afii10082
ENCODING 240
SWIDTH 571 0
DWIDTH 8 0
BBX 8 14 0 -2
BITMAP
00
00
00
00
00
FC
C6
C6
C6
C6
C6
FC
C0
C0
ENDCHAR
STARTCHAR afii10083
ENCODING 241
SWIDTH 571 0
DWIDTH 8 0
BBX 8 14 0 -2
BITMAP
00
00
00
00
00
7C
C6
C0
C0
C0
C6
7C
00
00
ENDCHAR
STARTCHAR afii10084
ENCODING 242
SWIDTH 571 0
DWIDTH 8 0
BBX 8 14 0 -2
BITMAP
00
00
00
00
00
FF
18
18
18
18
18
18
00
00
ENDCHAR
STARTCHAR afii10085
ENCODING 243
SWIDTH 571 0
DWIDTH 8 0
BBX 8 14 0 -2
BITMAP
00
00
00
00
00
C6
C6
C6
C6
C6
C6
7E
06
7C
ENDCHAR
STARTCHAR afii10086
ENCODING 244
SWIDTH 571 0
DWIDTH 8 0
BBX 8 14 0 -2
BITMAP
00
00
00
00
10
7C
D6
D6
D6
D6
D6
7C
10
00
ENDCHAR
STARTCHAR afii10087
ENCODING 245
SWIDTH 571 0
DWIDTH 8 0
BBX 8 14 0 -2
BITMAP
00
00
00
00
00
C6
C6
6C
38
6C
C6
C6
00
00
ENDCHAR
STARTCHAR afii10088
ENCODING 246
SWIDTH 571 0
DWIDTH 8 0
BBX 8 14 0 -2
BITMAP
00
00
00
00
00
C6
C6
C6
C6
C6
C6
7F
03
03
ENDCHAR
STARTCHAR afii10089
ENCODING 247
SWIDTH 571 0
DWIDTH 8 0
BBX 8 14 0 -2
BITMAP
00
00
00
00
00
C6
C6
C6
7E
06
06
06
00
00
ENDCHAR
STARTCHAR afii10090
ENCODING 248
SWIDTH 571 0
DWIDTH 8 0
BBX 8 14 0 -2
BITMAP
00
00
00
00
00
D6
D6
D6
D6
D6
D6
7E
00
00
ENDCHAR
STARTCHAR afii10091
ENCODING 249
SWIDTH 571 0
DWIDTH 8 0
BBX 8 14 0 -2
BITMAP
00
00
00
00
00
D6
D6
D6
D6
D6
D6
7F
03
03
ENDCHAR
STARTCHAR afii10092
ENCODING 250
SWIDTH 571 0
DWIDTH 8 0
BBX 8 14 0 -2
BITMAP
00
00
00
00
00
E0
60
7C
66
66
66
7C
00
00
ENDCHAR
STARTCHAR afii10093
ENCODING 251
SWIDTH 571 0
DWIDTH 8 0
BBX 8 14 0 -2
BITMAP
00
00
00
00
00
C6
C6
E6
D6
D6
D6
E6
00
00
ENDCHAR
STARTCHAR afii10094
ENCODING 252
SWIDTH 571 0
DWIDTH 8 0
BBX 8 14 0 -2
BITMAP
00
00
00
00
00
60
60
7C
66
66
66
7C
00
00
ENDCHAR
STARTCHAR afii10095
ENCODING 253
SWIDTH 571 0
DWIDTH 8 0
BBX 8 14 0 -2
BITMAP
00
00
00
00
00
7C
C6
06
3E
06
C6
7C
00
00
ENDCHAR
STARTCHAR afii10096
ENCODING 254
SWIDTH 571 0
DWIDTH 8 0
BBX 8 14 0 -2
BITMAP
00
00
00
00
00
CC
D6
D6
F6
D6
D6
CC
00
00
ENDCHAR
STARTCHAR afii10097
ENCODING 255
SWIDTH 571 0
DWIDTH 8 0
BBX 8 14 0 -2
BITMAP
00
00
00
00
00
7E
C6
C6
7E
36
66
C6
00
00
ENDCHAR
ENDFONT
